# xmcd
#
# Track frame offsets:
#  150
#  30372
#  43445
#  69042
#  79190
#  105507
#  116407
#  133665
#  144905
#  156077
#  180335
#  202515
#  221977
#  233075
#
# Disc length: 3257 seconds
#
# Revision: 2
# Processed by: cddbd v1.5.2PL0 Copyright (c) Steve Scherf et al.
# Submitted via: Collectorz.com_Music_Collector 6.11
#
DISCID=b00cb70e
DTITLE=Eric Clapton - Eric Clapton and Friends Live
DYEAR=1995
DGENRE=Blues
TTITLE0=Smokestack Lightning
TTITLE1=You Can't Judge A Book By Its Cover
TTITLE2=Take It Easy Baby
TTITLE3=Let It Rock
TTITLE4=I Wish You Would
TTITLE5=Boom Boom
TTITLE6=Who Do You Love
TTITLE7=I Got Love If You Want It
TTITLE8=Good Morning Little Schoolgirl
TTITLE9=Respectable
TTITLE10=Five Long Years
TTITLE11=I'm A Man
TTITLE12=For Your Love
TTITLE13=Sweet Music
EXTD=
EXTT0=
EXTT1=
EXTT2=
EXTT3=
EXTT4=
EXTT5=
EXTT6=
EXTT7=
EXTT8=
EXTT9=
EXTT10=
EXTT11=
EXTT12=
EXTT13=
PLAYORDER=
